<svg xmlns="http://www.w3.org/2000/svg" xmlns:xlink="http://www.w3.org/1999/xlink" width="45" height="45" viewBox="0 0 45 45">
    <defs>
        <linearGradient id="wcc-logo-mark_svg__a" y1="270" x2="45" y2="315" gradientTransform="translate(0 -270)" gradientUnits="userSpaceOnUse">
            <stop offset="0" stop-color="#ff690f"/>
            <stop offset="1" stop-color="#e8381b"/>
        </linearGradient>
        <linearGradient id="wcc-logo-mark_svg__b" x1="13.46" y1="280.53" x2="30.41" y2="305.08" xlink:href="#wcc-logo-mark_svg__a"/>
    </defs>
    <path d="M45 45H0V0h45zM3.1 41.9h38.8V3.1H3.1z" fill="url(#wcc-logo-mark_svg__a)"/>
    <path d="M10.4 27.9l-1.3-9.5h2.2l.3 5.1v2.4h.1c.1-.4.1-.8.2-1.2a5 5 0 00.2-1.2l.6-2.6h1.4l.6 2.6a5 5 0 01.2 1.2a5 5 0 01.2 1.2h.1v-2.4l.3-5.1h2.1l-1.2 9.5h-2.3l-.3-2.9c-.1-.3-.1-.6-.2-.9s-.1-.6-.1-.9c0 .3-.1.6-.1.9s-.1.6-.1.9l-.6 2.9zm12.6.2a4.67 4.67 0 01-1.7-.3a4.19 4.19 0 01-1.4-.9a5.6 5.6 0 01-1-1.5a6.65 6.65 0 01-.3-2.1a6.65 6.65 0 01.3-2.1a5.37 5.37 0 011-1.6a4.51 4.51 0 011.4-1a5.23 5.23 0 011.8-.3a2.93 2.93 0 011.6.4a3.6 3.6 0 011.2.8l-1.2 1.3a3 3 0 00-.7-.5a2.92 2.92 0 00-.9-.2a2.39 2.39 0 00-.9.2a1.34 1.34 0 00-.7.6a3.13 3.13 0 00-.5 1a5.07 5.07 0 00-.2 1.3a3.33 3.33 0 00.7 2.3a2.14 2.14 0 001.7.8a2.39 2.39 0 00.9-.2a5.55 5.55 0 00.8-.6l1.2 1.3a4.06 4.06 0 01-3.1 1.3zm8.8 0a4.67 4.67 0 01-1.7-.3a4.19 4.19 0 01-1.4-.9a5.6 5.6 0 01-1-1.5a6.65 6.65 0 01-.3-2.1a6.65 6.65 0 01.3-2.1a5.37 5.37 0 011-1.6a4.51 4.51 0 011.4-1a5.23 5.23 0 011.8-.3a2.93 2.93 0 011.6.4a3.6 3.6 0 011.2.8l-1.2 1.3a3 3 0 00-.7-.5a2.92 2.92 0 00-.9-.2a2.39 2.39 0 00-.9.2a1.34 1.34 0 00-.7.6a3.13 3.13 0 00-.5 1a5.07 5.07 0 00-.2 1.3a3.33 3.33 0 00.7 2.3a2.14 2.14 0 001.7.8a2.39 2.39 0 00.9-.2a5.55 5.55 0 00.8-.6l1.2 1.3a4.22 4.22 0 01-3.1 1.3z" fill="url(#wcc-logo-mark_svg__b)"/>
</svg>
